<?xml version="1.0" standalone="no"?>
<!DOCTYPE svg PUBLIC "-//W3C//DTD SVG 20010904//EN"
 "http://www.w3.org/TR/2001/REC-SVG-20010904/DTD/svg10.dtd">
<svg version="1.0" xmlns="http://www.w3.org/2000/svg"
 width="700.000000pt" height="700.000000pt" viewBox="0 0 700.000000 700.000000"
 preserveAspectRatio="xMidYMid meet">
<metadata>
Created by potrace 1.11, written by Peter Selinger 2001-2013
</metadata>
<g transform="translate(0.000000,700.000000) scale(0.100000,-0.100000)"
fill="#000000" stroke="none">
<path d="M3950 6690 c-244 -34 -436 -91 -628 -187 -395 -196 -680 -541 -787
-953 -49 -190 -53 -511 -9 -714 18 -82 18 -83 -24 -131 -135 -154 -174 -460
-86 -686 40 -102 121 -196 191 -221 36 -13 38 -18 48 -93 14 -108 86 -376 107
-400 4 -5 8 -15 8 -23 0 -30 123 -275 188 -377 135 -208 300 -383 484 -510
l58 -40 0 -127 c0 -71 -3 -128 -7 -129 -66 -7 -162 -45 -283 -111 l-75 -41
-250 -2 c-272 -2 -310 -6 -454 -39 -109 -25 -235 -81 -346 -155 -38 -25 -75
-49 -82 -54 -7 -4 -20 5 -34 24 -22 31 -22 32 -22 510 0 263 2 481 5 485 3 3
22 7 42 10 136 17 260 102 307 211 17 41 22 59 33 148 2 17 0 57 -5 91 -21
156 -109 256 -266 304 -67 20 -84 21 -623 18 -619 -3 -595 -1 -708 -75 -92
-61 -141 -158 -147 -289 -10 -218 110 -368 323 -405 l62 -11 0 -484 0 -484
-378 -473 c-437 -546 -478 -599 -525 -687 -56 -104 -70 -160 -63 -247 13 -169
111 -283 281 -328 53 -13 430 -15 3388 -15 l3329 0 -5 468 c-2 257 -7 478 -10
492 -4 14 -12 50 -18 80 -21 102 -73 227 -147 356 -29 50 -121 163 -176 216
-148 143 -325 244 -513 292 -134 34 -185 39 -458 40 l-250 2 -95 50 c-108 57
-189 90 -240 99 l-36 6 1 124 c1 68 3 126 5 128 3 2 45 34 94 71 110 84 197
164 291 270 68 76 175 239 250 380 70 132 161 385 181 506 3 14 7 32 9 40 2 8
7 31 11 50 3 19 7 42 9 50 2 8 4 25 4 38 1 17 12 28 46 43 234 104 310 573
137 854 -14 22 -34 48 -45 57 -16 14 -18 25 -13 60 30 216 35 528 11 638 -32
145 -38 163 -74 253 -77 192 -185 351 -346 512 -126 126 -220 199 -365 282
-119 68 -342 164 -415 177 -11 2 -48 11 -82 20 -208 54 -564 70 -813 36z"/>
<path d="M1325 5050 c-96 -22 -155 -94 -155 -190 0 -157 183 -247 308 -152 92
70 99 218 15 292 -51 46 -111 63 -168 50z"/>
<path d="M977 4456 c-90 -33 -164 -111 -188 -200 -15 -54 -5 -156 20 -204 25
-50 83 -108 134 -133 60 -31 160 -36 227 -10 195 73 250 325 106 474 -75 76
-202 107 -299 73z"/>
<path d="M1647 4051 c-140 -89 -107 -306 53 -348 62 -17 115 -6 168 34 75 57
96 165 48 248 -56 95 -176 124 -269 66z"/>
</g>
</svg>
