<?xml version="1.0" encoding="utf-8"?>
<!-- Generator: Adobe Illustrator 18.0.0, SVG Export Plug-In . SVG Version: 6.00 Build 0)  -->
<!DOCTYPE svg PUBLIC "-//W3C//DTD SVG 1.1//EN" "http://www.w3.org/Graphics/SVG/1.1/DTD/svg11.dtd">
<svg version="1.1" id="Layer_1" xmlns="http://www.w3.org/2000/svg" xmlns:xlink="http://www.w3.org/1999/xlink" x="0px" y="0px"
	 viewBox="0 0 300 300" enable-background="new 0 0 300 300" xml:space="preserve">
<g>
	<g>
		<path d="M292.7,163.5c-11-20.2-25.6-37.8-43.2-52.2c-16.2-13.2-34.4-23.1-54-29.6c4.5-12.1,1.7-25.9-7.8-35.4l-9.3-9.3l19-19
			c2.8-2.8,2.8-7.4,0-10.2c-2.8-2.8-7.4-2.8-10.2,0l-19.6,19.6c-10.8-6.7-24.6-6.6-35.4,0.1L112.6,7.9c-2.8-2.8-7.4-2.8-10.2,0
			c-2.8,2.8-2.8,7.4,0,10.2l19,19l-9.2,9.2c-9.5,9.5-12.2,23.3-7.8,35.4c-19.6,6.4-37.8,16.4-54,29.6c-17.7,14.4-32.2,32-43.2,52.2
			c-7.9,14.4-9.4,29.5-4.4,43.6c4.4,12.4,13.5,23,25.7,30c9,5.1,18.9,7.8,28.6,7.8c3.5,0,6.9-0.3,10.3-1c7.9-1.6,15-4.9,21.3-9.9
			c12.4,25.9,32.6,47.8,57.6,62.3c1.1,0.6,2.4,1,3.6,1c1.2,0,2.5-0.3,3.6-1c25.1-14.5,45.2-36.4,57.7-62.3c6.2,5,13.4,8.3,21.3,9.9
			c3.4,0.7,6.8,1,10.3,1c9.7,0,19.6-2.6,28.6-7.8c12.2-6.9,21.3-17.6,25.7-30C302.1,193,300.6,177.9,292.7,163.5z M122.5,56.6l14-14
			c7.5-7.5,19.6-7.5,27.1,0l14,14c5.6,5.6,6.6,12.6,5,18.4c-19.8-12.1-45.2-12.1-65,0C115.9,69.2,116.8,62.2,122.5,56.6z
			 M127.2,126.7h45.7c-0.1,8.5,0.4,17.1,1.6,25.7h-48.9C126.7,143.9,127.3,135.3,127.2,126.7z M173.7,112.3h-47.3
			c-0.8-7.8-2.1-15.5-4-23.2c16.4-11.6,38.8-11.7,55.3,0C175.8,96.8,174.4,104.5,173.7,112.3z M122.9,166.9h54.2
			c2,8.8,4.6,17.4,8,25.7H115C118.3,184.3,120.9,175.7,122.9,166.9z M90.2,210.3c-6.2,10.5-15.1,17.2-25.6,19.3
			c-9.5,1.9-19.7,0.1-28.9-5.1c-9.2-5.2-16-13.1-19.2-22.2c-3.6-10.1-2.4-21.1,3.5-31.9c10.1-18.6,23.4-34.7,39.7-47.9
			c14.8-12.1,31.4-21.2,49.4-27.1c1.8,8,2.9,16,3.4,24.1c0,0.3,0.2,21.7-1.4,32.2c-2.3,15.5-6.8,30.4-13.4,44.6
			C97.5,196.6,92.8,206,90.2,210.3z M150,281.5c-14.4-9-26.8-20.7-36.6-34.3h73.2C176.8,260.9,164.4,272.6,150,281.5z M195.6,232.9
			c-0.3,0-90.7,0-91.1,0c-1.8-3.4-3.5-6.8-5-10.4c1.1-1.5,2.2-3.2,3.2-4.8c2.1-3.5,4-7,5.8-10.6h83.1c1.8,3.6,3.7,7.1,5.8,10.6
			c1,1.7,2.1,3.3,3.2,4.9C199,226.1,197.4,229.5,195.6,232.9z M283.5,202.3c-3.2,9.1-10,17-19.2,22.2c-9.2,5.2-19.5,7-28.9,5.1
			c-10.5-2.1-19.4-8.8-25.6-19.3c-2.6-4.3-7.3-13.7-7.4-14c-6.7-14.2-11.2-29.1-13.5-44.6c-1.5-10.5-1.4-32-1.4-32.3
			c0.5-8.1,1.6-16.1,3.4-24.1c18,5.9,34.5,15,49.4,27.1c16.2,13.2,29.6,29.3,39.7,47.9C285.9,181.1,287.1,192.2,283.5,202.3z"/>
	</g>
</g>
<g>
	<g>
		<path d="M90.9,130.3c-2.2-3.3-6.7-4.2-10-2c-1,0.7-5.1,3.6-6.1,4.4c-3.2,2.4-3.8,6.9-1.4,10.1c1.4,1.9,3.6,2.9,5.8,2.9
			c1.5,0,3-0.5,4.3-1.5c0.9-0.7,4.6-3.3,5.5-3.9C92.2,138.1,93.1,133.6,90.9,130.3z"/>
	</g>
</g>
<g>
	<g>
		<path d="M65.6,149.9c-2.9-2.7-7.5-2.5-10.2,0.5c-7.9,8.6-14.7,18.1-20.2,28.3c-1.9,3.5-0.6,7.9,2.9,9.8c1.1,0.6,2.3,0.9,3.4,0.9
			c2.6,0,5-1.4,6.4-3.8c5-9.2,11.1-17.8,18.2-25.5C68.7,157.1,68.5,152.6,65.6,149.9z"/>
	</g>
</g>
<g>
	<g>
		<path d="M258.3,185.2c-0.2-1.9-0.7-3.8-1.5-5.8c-1.5-3.7-5.7-5.5-9.4-4.1c-3.7,1.5-5.5,5.7-4.1,9.4c0.3,0.8,0.5,1.4,0.5,2
			c0.4,3.7,3.5,6.5,7.2,6.5c0.2,0,0.5,0,0.7,0C255.8,192.7,258.7,189.2,258.3,185.2z"/>
	</g>
</g>
<g>
	<g>
		<path d="M243.8,158.4l-0.4-0.5c-5.5-7.1-11.8-13.7-18.7-19.5c-3.6-3.1-7.4-5.9-11.3-8.6c-3.3-2.2-7.8-1.4-10,2
			c-2.2,3.3-1.3,7.8,2,10c3.5,2.3,6.9,4.9,10.1,7.6c6.1,5.2,11.7,11,16.6,17.3l0.3,0.4c1.4,1.8,3.6,2.8,5.7,2.8
			c1.5,0,3.1-0.5,4.4-1.5C245.6,166.1,246.2,161.5,243.8,158.4z"/>
	</g>
</g>
</svg>
