<?xml version="1.0" encoding="utf-8"?>
<!-- Generator: Adobe Illustrator 18.0.0, SVG Export Plug-In . SVG Version: 6.00 Build 0)  -->
<!DOCTYPE svg PUBLIC "-//W3C//DTD SVG 1.1//EN" "http://www.w3.org/Graphics/SVG/1.1/DTD/svg11.dtd">
<svg version="1.1" id="Layer_1" xmlns="http://www.w3.org/2000/svg" xmlns:xlink="http://www.w3.org/1999/xlink" x="0px" y="0px"
	 viewBox="0 0 300 300" enable-background="new 0 0 300 300" xml:space="preserve">
<g>
	<path d="M291.3,184.4c-6,6.3-14,9.7-22.7,9.7c0,0,0,0,0,0c-8.7,0-16.7-3.5-22.7-9.7c-1-1-2.3-1.6-3.7-1.6c0,0,0,0,0,0
		c-1.4,0-2.7,0.6-3.6,1.6c-6,6.3-14,9.7-22.7,9.7c-8.7,0-16.7-3.5-22.7-9.7c-1-1-2.3-1.6-3.7-1.6c-1.4,0-2.7,0.6-3.7,1.6
		c-6,6.3-14,9.7-22.7,9.7c-8.7,0-16.7-3.5-22.7-9.7c-1-1-2.3-1.6-3.7-1.6c-1.4,0-2.7,0.6-3.7,1.6c-6,6.3-14,9.7-22.7,9.7
		s-16.7-3.5-22.7-9.7c-1-1-2.3-1.6-3.7-1.6s-2.7,0.6-3.7,1.6c-6,6.3-14,9.7-22.7,9.7c-8.7,0-16.7-3.5-22.7-9.7c-1-1-2.3-1.6-3.6-1.6
		c0,0,0,0,0,0c-1.4,0-2.7,0.6-3.7,1.6c-6,6.3-14,9.7-22.7,9.7c-2.8,0-5,2.3-5,5s2.3,5,5,5c9.8,0,19-3.3,26.4-9.4
		c7.4,6.1,16.6,9.4,26.4,9.4c9.8,0,19-3.3,26.4-9.4c7.4,6.1,16.6,9.4,26.4,9.4s19-3.3,26.4-9.4c7.4,6.1,16.6,9.4,26.4,9.4
		c9.8,0,19-3.3,26.4-9.4c7.4,6.1,16.6,9.4,26.4,9.4c9.8,0,19-3.3,26.4-9.4c7.4,6.1,16.6,9.4,26.3,9.4c0,0,0,0,0,0
		c11.4,0,22.1-4.6,30-12.9c1.9-2,1.8-5.2-0.2-7.1S293.2,182.4,291.3,184.4z"/>
	<path d="M291.3,219.8c-6,6.3-14,9.7-22.7,9.7c0,0,0,0,0,0c-8.7,0-16.7-3.5-22.7-9.7c-1-1-2.3-1.6-3.7-1.6c0,0,0,0,0,0
		c-1.4,0-2.7,0.6-3.6,1.6c-6,6.3-14,9.7-22.7,9.7c-8.7,0-16.7-3.5-22.7-9.7c-1-1-2.3-1.6-3.7-1.6s-2.7,0.6-3.7,1.6
		c-6,6.3-14,9.7-22.7,9.7c-8.7,0-16.7-3.5-22.7-9.7c-1-1-2.3-1.6-3.7-1.6c-1.4,0-2.7,0.6-3.7,1.6c-6,6.3-14,9.7-22.7,9.7
		s-16.7-3.5-22.7-9.7c-1-1-2.3-1.6-3.7-1.6c-1.4,0-2.7,0.6-3.7,1.6c-6,6.3-14,9.7-22.7,9.7c-8.7,0-16.7-3.5-22.7-9.7
		c-1-1-2.3-1.6-3.7-1.6c-1.4,0-2.7,0.6-3.7,1.6c-6,6.3-14,9.7-22.7,9.7c-2.8,0-5,2.3-5,5c0,2.8,2.3,5,5,5c9.8,0,19-3.3,26.4-9.4
		c7.4,6.1,16.6,9.4,26.4,9.4c9.8,0,19-3.3,26.4-9.4c7.4,6.1,16.6,9.4,26.4,9.4s19-3.3,26.4-9.4c7.4,6.1,16.6,9.4,26.4,9.4
		c9.8,0,19-3.3,26.4-9.4c7.4,6.1,16.6,9.4,26.4,9.4c9.8,0,19-3.3,26.4-9.4c7.4,6.1,16.6,9.4,26.3,9.4c0,0,0,0,0,0
		c11.4,0,22.1-4.6,30-12.9c1.9-2,1.8-5.2-0.2-7.1S293.2,217.7,291.3,219.8z"/>
	<path d="M201.7,84.2c1.3-2.6,2.7-5.1,4.3-7.5c1.5-2.3,0.8-5.5-1.5-7c-2.3-1.5-5.5-0.8-7,1.5c-1.7,2.7-3.4,5.6-4.8,8.5
		c-1.2,2.5-0.2,5.5,2.3,6.8c0.7,0.4,1.5,0.5,2.3,0.5C199,87,200.8,86,201.7,84.2z"/>
	<path d="M192.7,92.1c-2.7-0.8-5.5,0.8-6.3,3.4c-2.5,8.7-3.8,17.8-3.8,27.1c0,1.5,0,3,0.1,4.3c0.2,3.8,0.6,7.6,1.2,11.4
		c0.4,2.5,2.5,4.2,5,4.2c0.3,0,0.5,0,0.8-0.1c2.7-0.4,4.6-3,4.2-5.8c-0.5-3.4-0.9-6.8-1-10.2c-0.1-1.2-0.1-2.5-0.1-3.9
		c0-8.3,1.2-16.4,3.4-24.3C196.9,95.7,195.4,92.9,192.7,92.1z"/>
	<path d="M242.2,124.1c7.4,6.1,16.6,9.4,26.3,9.4c0,0,0,0,0,0c11.4,0,22.1-4.6,30-12.9c1.9-2,1.8-5.2-0.2-7.1
		c-2-1.9-5.2-1.8-7.1,0.2c-6,6.3-14,9.7-22.7,9.7c0,0,0,0,0,0c-8.7,0-16.7-3.5-22.7-9.7c-1-1-2.3-1.6-3.7-1.6c0,0,0,0,0,0
		c-1.4,0-2.7,0.6-3.6,1.6c-6,6.3-14,9.7-22.7,9.7c-2.3,0-4.6-0.3-6.8-0.7c0-8.5,1.4-16.7,4.2-24.6c0.9,0.1,1.7,0.1,2.6,0.1
		c9.8,0,19-3.3,26.4-9.4c7.4,6.1,16.6,9.4,26.3,9.4c0,0,0,0,0,0c11.4,0,22.1-4.6,30-12.9c1.9-2,1.8-5.2-0.2-7.1
		c-2-1.9-5.2-1.8-7.1,0.2c-6,6.3-14,9.7-22.7,9.7c0,0,0,0,0,0c-8.7,0-16.7-3.5-22.7-9.7c-1-1-2.3-1.6-3.7-1.6c0,0,0,0,0,0
		c-1.4,0-2.7,0.6-3.6,1.6c-5.6,5.8-12.9,9.2-20.9,9.7c2.7-5,5.9-9.7,9.6-14.1c4.2-4.8,5-11.3,2.1-17c-2.9-5.6-8.7-8.9-15-8.4
		c0,0,0,0-0.1,0c-0.1,0-0.2,0-0.2,0c-28.7,2.6-56.2,13-79.6,29.9c-1.5,1.1-8.3,5.4-9,5.8c-4.6,2.5-9.8,3.8-15,3.8
		c-8.7,0-16.7-3.5-22.7-9.7c-1-1-2.3-1.6-3.7-1.6c-1.4,0-2.7,0.6-3.7,1.6c-6,6.3-14,9.7-22.7,9.7c-8.7,0-16.7-3.5-22.7-9.7
		c-1-1-2.3-1.6-3.6-1.6c0,0,0,0,0,0c-1.4,0-2.7,0.6-3.7,1.6c-6,6.3-14,9.7-22.7,9.7c-2.8,0-5,2.3-5,5c0,2.8,2.3,5,5,5
		c9.8,0,19-3.3,26.4-9.4c7.4,6.1,16.6,9.4,26.4,9.4c9.8,0,19-3.3,26.4-9.4c7.4,6.1,16.6,9.4,26.4,9.4c0.5,0,1.1,0,1.6,0
		c-6.2,6.6-11.9,13.7-17,21.3c-2.7-1.5-5.1-3.4-7.3-5.7c-1-1-2.3-1.6-3.7-1.6l0,0c-1.4,0-2.7,0.6-3.7,1.6c-6,6.3-14,9.7-22.7,9.7
		c-8.7,0-16.7-3.5-22.7-9.7c-1-1-2.3-1.6-3.6-1.6c0,0,0,0,0,0c-1.4,0-2.7,0.6-3.7,1.6c-6,6.3-14,9.7-22.7,9.7c-2.8,0-5,2.3-5,5
		c0,2.8,2.3,5,5,5c9.8,0,19-3.3,26.4-9.4c7.4,6.1,16.6,9.4,26.4,9.4c9.8,0,19-3.3,26.4-9.4c1.8,1.5,3.6,2.7,5.6,3.9
		c-4.2,7.3-7.9,14.9-11,22.8c-5.8,5.2-13.1,8.1-21,8.1c-8.7,0-16.7-3.5-22.7-9.7c-1-1-2.3-1.6-3.6-1.6c0,0,0,0,0,0
		c-1.4,0-2.7,0.6-3.7,1.6c-6,6.3-14,9.7-22.7,9.7c-2.8,0-5,2.3-5,5c0,2.8,2.3,5,5,5c9.8,0,19-3.3,26.4-9.4
		c7.4,6.1,16.6,9.4,26.4,9.4c9.8,0,19-3.3,26.4-9.4c7.4,6.1,16.6,9.4,26.4,9.4c9.8,0,19-3.3,26.4-9.4c7.4,6.1,16.6,9.4,26.4,9.4
		c9.8,0,19-3.3,26.4-9.4c7.4,6.1,16.6,9.4,26.4,9.4c9.8,0,19-3.3,26.4-9.4c7.4,6.1,16.6,9.4,26.3,9.4c0,0,0,0,0,0
		c11.4,0,22.1-4.6,30-12.9c1.9-2,1.8-5.2-0.2-7.1s-5.2-1.8-7.1,0.2c-6,6.3-14,9.7-22.7,9.7c0,0,0,0,0,0c-8.7,0-16.7-3.5-22.7-9.7
		c-1-1-2.3-1.6-3.7-1.6c0,0,0,0,0,0c-1.4,0-2.7,0.6-3.6,1.6c-5.4,5.7-12.5,9-20.2,9.6c-4.4-8-7.3-16.6-8.6-25.6c2,0.3,4,0.5,6.1,0.5
		C225.7,133.5,234.9,130.2,242.2,124.1z M189.5,147.5c-1.4,0-2.7,0.6-3.7,1.6c-6,6.3-14,9.7-22.7,9.7c-8.7,0-16.7-3.5-22.7-9.7
		c-1-1-2.3-1.6-3.7-1.6c-1.4,0-2.7,0.6-3.7,1.6c-6,6.3-14,9.7-22.7,9.7c-7.8,0-15.1-2.8-20.9-8c3.2-7.7,7.1-15.2,11.6-22.3
		c10.3-16.4,23.6-30.5,39.3-41.9c21.9-15.8,47.6-25.5,74.5-28c0,0,0,0,0,0c0.1,0,0.1,0,0.2,0c3.3-0.3,4.9,2.2,5.2,2.9
		c0.4,0.7,1.4,3.4-0.7,5.8c-6.1,7-10.9,14.9-14.4,23.4c-4.2,10.2-6.3,20.9-6.3,32c0,1.4,0,2.8,0.1,4.1c0.5,10.5,3,21,7.3,30.6
		c-5-1.6-9.5-4.4-13.3-8.3C192.2,148,190.9,147.5,189.5,147.5z"/>
</g>
</svg>
